<?xml version="1.0" encoding="UTF-8"?>
<!DOCTYPE svg PUBLIC "-//W3C//DTD SVG 1.1//EN" "http://www.w3.org/Graphics/SVG/1.1/DTD/svg11.dtd">
<svg xmlns="http://www.w3.org/2000/svg" version="1.1" width="800px" height="800px" style="shape-rendering:geometricPrecision; text-rendering:geometricPrecision; image-rendering:optimizeQuality; fill-rule:evenodd; clip-rule:evenodd" xmlns:xlink="http://www.w3.org/1999/xlink">
<g><path style="opacity:1" fill="#7c76b3" d="M -0.5,-0.5 C 139.5,-0.5 279.5,-0.5 419.5,-0.5C 418.685,0.836628 417.518,1.83663 416,2.5C 414.692,5.73023 413.692,9.06356 413,12.5C 404.959,26.8889 393.126,36.3889 377.5,41C 374.833,45.3333 374.833,49.6667 377.5,54C 397,60.1667 409.833,73 416,92.5C 420.333,96.5 424.667,96.5 429,92.5C 435.132,73.0348 447.965,60.2015 467.5,54C 470.167,49.6667 470.167,45.3333 467.5,41C 451.874,36.3889 440.041,26.8889 432,12.5C 431.321,9.45009 430.488,6.45009 429.5,3.5C 427.812,2.4787 426.479,1.14537 425.5,-0.5C 550.167,-0.5 674.833,-0.5 799.5,-0.5C 799.5,266.167 799.5,532.833 799.5,799.5C 729.833,799.5 660.167,799.5 590.5,799.5C 609.142,792.228 616.309,778.561 612,758.5C 609.063,747.23 601.897,740.397 590.5,738C 586.579,737.797 582.745,737.297 579,736.5C 570.422,707.689 561.922,678.856 553.5,650C 630.004,585.208 662.171,502.708 650,402.5C 632.016,309.203 579.849,243.036 493.5,204C 404.36,170.312 320.36,179.979 241.5,233C 159.2,297.147 124.367,381.313 137,485.5C 148.54,550.788 179.707,604.288 230.5,646C 232.124,647.117 233.124,648.617 233.5,650.5C 225,679.167 216.5,707.833 208,736.5C 182.091,737.931 171.091,751.597 175,777.5C 176.517,783.682 179.683,788.849 184.5,793C 188.561,795.278 192.561,797.445 196.5,799.5C 130.833,799.5 65.1667,799.5 -0.5,799.5C -0.5,532.833 -0.5,266.167 -0.5,-0.5 Z M 421.5,31.5 C 427.073,36.7343 432.74,42.0676 438.5,47.5C 432.833,52.5 427.5,57.8333 422.5,63.5C 417.5,57.8333 412.167,52.5 406.5,47.5C 412.199,42.8019 417.199,37.4685 421.5,31.5 Z M 534.5,82.5 C 544.973,97.8062 557.973,110.64 573.5,121C 558.291,131.875 545.458,145.042 535,160.5C 524.701,145.368 512.201,132.368 497.5,121.5C 512.268,110.734 524.601,97.7343 534.5,82.5 Z M 376.5,202.5 C 476.352,199.995 552.185,240.995 604,325.5C 647.012,407.604 645.679,488.937 600,569.5C 544.462,653.183 466.295,691.349 365.5,684C 275.376,670.521 210.876,622.688 172,540.5C 142.148,467.131 145.815,395.465 183,325.5C 227.076,252.629 291.576,211.629 376.5,202.5 Z M 102.5,224.5 C 111.345,235.844 121.678,245.677 133.5,254C 121.707,262.125 111.541,271.959 103,283.5C 94.8333,272 85,262.167 73.5,254C 84.708,245.626 94.3747,235.792 102.5,224.5 Z M 705.5,312.5 C 708.755,314.926 711.588,317.926 714,321.5C 718.315,324.981 722.482,328.647 726.5,332.5C 719.5,338.833 712.833,345.5 706.5,352.5C 700.167,345.5 693.5,338.833 686.5,332.5C 694.255,327.081 700.588,320.415 705.5,312.5 Z"/></g>
<g><path style="opacity:0.982" fill="#000000" d="M 419.5,-0.5 C 421.5,-0.5 423.5,-0.5 425.5,-0.5C 426.479,1.14537 427.812,2.4787 429.5,3.5C 430.488,6.45009 431.321,9.45009 432,12.5C 440.041,26.8889 451.874,36.3889 467.5,41C 470.167,45.3333 470.167,49.6667 467.5,54C 447.965,60.2015 435.132,73.0348 429,92.5C 424.667,96.5 420.333,96.5 416,92.5C 409.833,73 397,60.1667 377.5,54C 374.833,49.6667 374.833,45.3333 377.5,41C 393.126,36.3889 404.959,26.8889 413,12.5C 413.692,9.06356 414.692,5.73023 416,2.5C 417.518,1.83663 418.685,0.836628 419.5,-0.5 Z M 421.5,31.5 C 417.199,37.4685 412.199,42.8019 406.5,47.5C 412.167,52.5 417.5,57.8333 422.5,63.5C 427.5,57.8333 432.833,52.5 438.5,47.5C 432.74,42.0676 427.073,36.7343 421.5,31.5 Z"/></g>
<g><path style="opacity:0.978" fill="#000000" d="M 534.5,47.5 C 537.559,47.7966 540.059,49.1299 542,51.5C 544.834,64.501 550.834,75.8343 560,85.5C 569.79,96.6316 581.29,105.465 594.5,112C 599.276,112.061 603.443,113.561 607,116.5C 609.446,121.324 608.613,125.491 604.5,129C 591.701,131.233 580.701,136.899 571.5,146C 562.837,154.515 555.004,163.682 548,173.5C 544.793,179.122 542.793,185.122 542,191.5C 537.333,195.5 532.667,195.5 528,191.5C 527.207,185.122 525.207,179.122 522,173.5C 510.302,155.134 494.802,140.967 475.5,131C 471.749,130.251 468.082,129.251 464.5,128C 460.323,123.046 460.657,118.38 465.5,114C 471.998,113.474 477.998,111.474 483.5,108C 499,97.8333 511.833,85 522,69.5C 525.207,63.8779 527.207,57.8779 528,51.5C 529.792,49.372 531.958,48.0387 534.5,47.5 Z M 534.5,82.5 C 524.601,97.7343 512.268,110.734 497.5,121.5C 512.201,132.368 524.701,145.368 535,160.5C 545.458,145.042 558.291,131.875 573.5,121C 557.973,110.64 544.973,97.8062 534.5,82.5 Z"/></g>
<g><path style="opacity:0.981" fill="#000000" d="M 590.5,799.5 C 459.167,799.5 327.833,799.5 196.5,799.5C 192.561,797.445 188.561,795.278 184.5,793C 179.683,788.849 176.517,783.682 175,777.5C 171.091,751.597 182.091,737.931 208,736.5C 216.5,707.833 225,679.167 233.5,650.5C 233.124,648.617 232.124,647.117 230.5,646C 179.707,604.288 148.54,550.788 137,485.5C 124.367,381.313 159.2,297.147 241.5,233C 320.36,179.979 404.36,170.312 493.5,204C 579.849,243.036 632.016,309.203 650,402.5C 662.171,502.708 630.004,585.208 553.5,650C 561.922,678.856 570.422,707.689 579,736.5C 582.745,737.297 586.579,737.797 590.5,738C 601.897,740.397 609.063,747.23 612,758.5C 616.309,778.561 609.142,792.228 590.5,799.5 Z M 376.5,202.5 C 291.576,211.629 227.076,252.629 183,325.5C 145.815,395.465 142.148,467.131 172,540.5C 210.876,622.688 275.376,670.521 365.5,684C 466.295,691.349 544.462,653.183 600,569.5C 645.679,488.937 647.012,407.604 604,325.5C 552.185,240.995 476.352,199.995 376.5,202.5 Z"/></g>
<g><path style="opacity:0.979" fill="#000000" d="M 100.5,190.5 C 104.115,190.206 107.282,191.206 110,193.5C 111,199.499 113,205.166 116,210.5C 124.167,222.667 134.333,232.833 146.5,241C 151.834,244 157.501,246 163.5,247C 167.034,251.076 167.367,255.409 164.5,260C 148.755,264.394 135.589,272.894 125,285.5C 117.097,293.639 112.097,303.306 110,314.5C 105.018,318.588 100.351,318.254 96,313.5C 94.9941,307.482 92.9941,301.816 90,296.5C 80.3683,283.199 68.535,272.366 54.5,264C 50.7897,263.105 47.123,262.105 43.5,261C 38.1667,256.333 38.1667,251.667 43.5,247C 51.332,245.917 58.332,242.917 64.5,238C 74.7463,229.756 83.5796,220.256 91,209.5C 93.4164,204.754 95.0831,199.754 96,194.5C 97.3968,192.93 98.8968,191.596 100.5,190.5 Z M 102.5,224.5 C 94.3747,235.792 84.708,245.626 73.5,254C 85,262.167 94.8333,272 103,283.5C 111.541,271.959 121.707,262.125 133.5,254C 121.678,245.677 111.345,235.844 102.5,224.5 Z"/></g>
<g><path style="opacity:0.935" fill="#000000" d="M 378.5,228.5 C 385.589,228.116 392.589,228.616 399.5,230C 404.833,235.333 404.833,240.667 399.5,246C 324.027,248.303 265.86,280.803 225,343.5C 206.469,375.287 197.136,409.62 197,446.5C 193.787,453.482 188.62,455.315 181.5,452C 179.27,449.434 177.936,446.434 177.5,443C 179.754,371.822 208.754,314.489 264.5,271C 298.5,246.056 336.5,231.889 378.5,228.5 Z"/></g>
<g><path style="opacity:0.981" fill="#000000" d="M 702.5,280.5 C 705.978,280.184 709.312,280.684 712.5,282C 718.286,300.132 729.62,313.799 746.5,323C 749.883,323.875 753.216,324.875 756.5,326C 761.564,335.648 758.564,340.981 747.5,342C 730.205,350.623 718.705,364.123 713,382.5C 708.667,386.5 704.333,386.5 700,382.5C 692.847,360.68 678.347,346.18 656.5,339C 652.265,329.198 655.599,323.865 666.5,323C 683.862,313.156 695.862,298.989 702.5,280.5 Z M 705.5,312.5 C 700.588,320.415 694.255,327.081 686.5,332.5C 693.5,338.833 700.167,345.5 706.5,352.5C 712.833,345.5 719.5,338.833 726.5,332.5C 722.482,328.647 718.315,324.981 714,321.5C 711.588,317.926 708.755,314.926 705.5,312.5 Z"/></g>
<g><path style="opacity:1" fill="#7c76b3" d="M 248.5,660.5 C 329.716,710.684 414.382,717.184 502.5,680C 514.489,674.007 526.156,667.507 537.5,660.5C 538.971,661.381 539.804,662.714 540,664.5C 546.784,688.477 553.951,712.31 561.5,736C 450.307,737.664 338.973,737.998 227.5,737C 226.446,735.612 226.28,734.112 227,732.5C 234.078,708.437 241.244,684.437 248.5,660.5 Z"/></g>
<g><path style="opacity:1" fill="#7c76b3" d="M 199.5,754.5 C 328.834,754.333 458.167,754.5 587.5,755C 593.714,757.085 596.38,761.419 595.5,768C 596.309,774.049 593.976,778.383 588.5,781C 458.5,781.667 328.5,781.667 198.5,781C 193.024,778.383 190.691,774.049 191.5,768C 190.743,761.331 193.41,756.831 199.5,754.5 Z"/></g>
</svg>
